<?xml version="1.0" encoding="utf-8"?>
<!-- Generator: Adobe Illustrator 27.7.0, SVG Export Plug-In . SVG Version: 6.00 Build 0)  -->
<svg version="1.1" id="Capa_1" xmlns="http://www.w3.org/2000/svg" xmlns:xlink="http://www.w3.org/1999/xlink" x="0px" y="0px"
	 viewBox="0 0 219 33.66" style="enable-background:new 0 0 219 33.66;" xml:space="preserve">
<style type="text/css">
	.st0{fill:#7A9B06;}
	.st1{fill:#00308C;}
</style>
<g>
	<g>
		<circle class="st0" cx="181.94" cy="29.48" r="3.27"/>
	</g>
	<g>
		<path class="st0" d="M189.18,21.94c0-6.55,5.14-11.52,11.84-11.52c3.41,0,6.42,1.32,8.56,3.69l-3.82,3.87
			c-1.18-1.27-2.78-1.96-4.73-1.96c-3.32,0-5.74,2.41-5.74,5.87c0,3.5,2.41,5.92,5.74,5.92c2,0,3.64-0.73,4.78-2.05l3.87,3.87
			c-2.23,2.46-5.19,3.73-8.65,3.73C194.28,33.37,189.18,28.45,189.18,21.94z"/>
		<path class="st0" d="M213.04,0L219,0l0,32.91l-5.96,0L213.04,0z"/>
	</g>
	<g>
		<g>
			<rect x="33.73" y="10.89" class="st1" width="6.13" height="22.26"/>
		</g>
		<g>
			<path class="st1" d="M75.99,11.47c-1.32-0.69-2.81-1.04-4.47-1.04c-1.66,0-3.16,0.36-4.52,1.08c-1.08,0.58-1.99,1.34-2.74,2.28
				c-0.69-0.96-1.55-1.75-2.6-2.33c-1.26-0.69-2.66-1.04-4.19-1.04c-1.63,0-3.09,0.35-4.38,1.04c-0.69,0.37-1.3,0.83-1.84,1.37
				v-1.95h-6.04v22.26h6.04V20.06c0-0.89,0.19-1.64,0.58-2.26c0.38-0.61,0.89-1.08,1.52-1.41c0.63-0.32,1.34-0.48,2.14-0.48
				c1.2,0,2.2,0.36,2.99,1.08c0.8,0.72,1.2,1.73,1.2,3.02v13.13h6.08V20.06c0-0.89,0.19-1.64,0.58-2.26
				c0.38-0.61,0.89-1.08,1.52-1.41c0.63-0.32,1.36-0.48,2.19-0.48c1.17,0,2.15,0.36,2.95,1.08c0.8,0.72,1.2,1.73,1.2,3.02v13.13
				h6.13V19.1c0-1.81-0.39-3.36-1.17-4.65C78.36,13.15,77.31,12.16,75.99,11.47z"/>
		</g>
		<g>
			<path class="st1" d="M100.87,13.08c-0.62-0.66-1.32-1.24-2.17-1.68c-1.26-0.65-2.67-0.97-4.24-0.97c-2.06,0-3.89,0.51-5.51,1.52
				c-1.61,1.01-2.88,2.4-3.8,4.15c-0.92,1.75-1.38,3.73-1.38,5.94c0,2.18,0.46,4.15,1.38,5.9c0.92,1.75,2.19,3.13,3.8,4.15
				c1.61,1.01,3.43,1.52,5.46,1.52c1.6,0,3.03-0.32,4.31-0.97c0.83-0.42,1.54-0.96,2.14-1.59v2.1h6.08V10.89h-6.08V13.08z
				 M99.67,26.33c-1.04,1.14-2.41,1.7-4.1,1.7c-1.08,0-2.04-0.26-2.9-0.78c-0.86-0.52-1.53-1.23-2-2.12
				c-0.48-0.89-0.71-1.93-0.71-3.13c0-1.17,0.24-2.2,0.71-3.09c0.48-0.89,1.14-1.6,1.98-2.12c0.84-0.52,1.82-0.78,2.93-0.78
				c1.14,0,2.12,0.25,2.95,0.76c0.83,0.51,1.49,1.22,1.98,2.14c0.49,0.92,0.74,1.97,0.74,3.13
				C101.24,23.77,100.72,25.19,99.67,26.33z"/>
		</g>
		<g>
			<path class="st1" d="M126.98,10.96c-0.84-0.35-1.82-0.53-2.92-0.53c-2.49,0-4.39,0.79-5.71,2.37c-0.02,0.02-0.03,0.05-0.05,0.07
				v-1.98h-6.04v22.26h6.04V20.89c0-1.66,0.41-2.9,1.22-3.71c0.81-0.81,1.87-1.22,3.16-1.22c0.61,0,1.16,0.09,1.64,0.25
				c0.48,0.17,0.88,0.45,1.22,0.85l3.78-4.38C128.6,11.89,127.82,11.32,126.98,10.96z"/>
		</g>
		<g>
			<path class="st1" d="M137,15.92c0.46-0.28,1.15-0.41,2.07-0.41c0.95,0,1.85,0.19,2.7,0.58c0.84,0.39,1.6,0.98,2.28,1.77
				l3.64-3.69c-0.98-1.29-2.22-2.25-3.71-2.88c-1.49-0.63-3.16-0.94-5-0.94c-1.75,0-3.27,0.28-4.56,0.85
				c-1.29,0.57-2.29,1.38-3,2.44c-0.71,1.06-1.06,2.3-1.06,3.71c0,1.35,0.28,2.46,0.83,3.32c0.55,0.86,1.25,1.53,2.1,2.01
				c0.84,0.48,1.74,0.85,2.69,1.13c0.95,0.28,1.85,0.54,2.7,0.78c0.84,0.25,1.54,0.53,2.1,0.85c0.55,0.32,0.83,0.79,0.83,1.41
				c0,0.52-0.26,0.93-0.78,1.22c-0.52,0.29-1.28,0.44-2.26,0.44c-1.2,0-2.3-0.22-3.32-0.65c-1.01-0.43-1.89-1.09-2.63-1.98
				l-3.64,3.64c0.74,0.86,1.61,1.61,2.63,2.24c1.01,0.63,2.13,1.11,3.34,1.43c1.21,0.32,2.47,0.48,3.76,0.48
				c2.67,0,4.79-0.64,6.36-1.91c1.57-1.28,2.35-3,2.35-5.18c0-1.35-0.27-2.46-0.81-3.32c-0.54-0.86-1.23-1.55-2.07-2.07
				c-0.84-0.52-1.74-0.93-2.67-1.22c-0.94-0.29-1.84-0.56-2.69-0.81c-0.86-0.25-1.55-0.51-2.07-0.81c-0.52-0.29-0.78-0.71-0.78-1.27
				C136.31,16.58,136.54,16.19,137,15.92z"/>
		</g>
		<g>
			<path class="st1" d="M167.18,10.89v2.18c-0.62-0.66-1.32-1.24-2.17-1.68c-1.26-0.65-2.67-0.97-4.24-0.97
				c-2.06,0-3.89,0.51-5.51,1.52c-1.61,1.01-2.88,2.4-3.8,4.15c-0.92,1.75-1.38,3.73-1.38,5.94c0,2.18,0.46,4.15,1.38,5.9
				c0.92,1.75,2.19,3.13,3.8,4.15c1.61,1.01,3.43,1.52,5.46,1.52c1.6,0,3.03-0.32,4.31-0.97c0.83-0.42,1.54-0.96,2.14-1.59v2.1h6.08
				V10.89H167.18z M165.98,26.33c-1.04,1.14-2.41,1.7-4.1,1.7c-1.08,0-2.04-0.26-2.9-0.78c-0.86-0.52-1.53-1.23-2-2.12
				c-0.48-0.89-0.71-1.93-0.71-3.13c0-1.17,0.24-2.2,0.71-3.09c0.48-0.89,1.14-1.6,1.98-2.12c0.84-0.52,1.82-0.78,2.93-0.78
				c1.14,0,2.12,0.25,2.95,0.76c0.83,0.51,1.49,1.22,1.98,2.14c0.49,0.92,0.74,1.97,0.74,3.13
				C167.55,23.77,167.03,25.19,165.98,26.33z"/>
		</g>
		<g>
			<g>
				<path class="st1" d="M29.4,16.9c0,9.34-7.22,16.2-16.7,16.2h-1.25c0.97-1.34,1.54-2.99,1.54-4.78c0-0.27-0.01-0.54-0.04-0.8
					c5.97-0.19,10-4.33,10-10.66c0-6.39-4.28-10.54-10.45-10.54H6.26v13.96c-0.47-0.08-0.94-0.13-1.43-0.13
					c-1.81,0-3.47,0.59-4.83,1.58V4.87C0,2.6,1.85,0.76,4.12,0.76h8.49C22.18,0.76,29.4,7.57,29.4,16.9z"/>
			</g>
		</g>
		<g>
			<path class="st0" d="M9.28,30.17c-1.02,2.46-3.84,3.63-6.3,2.61c-2.46-1.02-3.63-3.84-2.61-6.3s3.84-3.63,6.3-2.61
				S10.3,27.71,9.28,30.17z"/>
		</g>
	</g>
</g>
</svg>
